<svg t="1575296224535" class="icon" viewBox="0 0 1024 1024" version="1.1" xmlns="http://www.w3.org/2000/svg" p-id="9355" width="200" height="200"><path d="M384 102.4 192 102.4c-52.9408 0-96.0512 43.008-96.0512 96.0512l0 192c0 52.9408 43.1104 96.0512 96.0512 96.0512L384 486.5024c52.9408 0 96.0512-43.008 96.0512-96.0512L480.0512 198.4512C480.0512 145.408 436.9408 102.4 384 102.4zM441.6512 390.3488c0 31.744-25.8048 57.6512-57.6512 57.6512L192 448c-31.744 0-57.6512-25.8048-57.6512-57.6512L134.3488 198.4512c0-31.744 25.8048-57.5488 57.6512-57.5488L384 140.9024c31.744 0 57.6512 25.8048 57.6512 57.5488L441.6512 390.3488z" p-id="9356" fill="#707070"></path><path d="M288.0512 256c-21.0944 0-38.4 17.3056-38.4 38.4s17.3056 38.4 38.4 38.4c21.0944 0 38.4-17.3056 38.4-38.4S309.1456 256 288.0512 256z" p-id="9357" fill="#707070"></path><path d="M832 102.4 640 102.4c-52.9408 0-96.0512 43.008-96.0512 96.0512l0 192c0 52.9408 43.1104 96.0512 96.0512 96.0512l192 0c52.9408 0 96.0512-43.008 96.0512-96.0512L928.0512 198.4512C927.9488 145.408 884.9408 102.4 832 102.4zM889.5488 390.3488c0 31.744-25.8048 57.5488-57.6512 57.5488L640 447.8976c-31.744 0-57.6512-25.8048-57.6512-57.5488L582.3488 198.4512c0-31.744 25.8048-57.5488 57.6512-57.5488l192 0c31.744 0 57.6512 25.8048 57.6512 57.5488L889.6512 390.3488z" p-id="9358" fill="#707070"></path><path d="M735.9488 256c-21.0944 0-38.4 17.3056-38.4 38.4s17.3056 38.4 38.4 38.4c21.0944 0 38.4-17.3056 38.4-38.4S757.1456 256 735.9488 256z" p-id="9359" fill="#707070"></path><path d="M384 537.6 192 537.6c-52.9408 0-96.0512 43.008-96.0512 96.0512l0 192c0 52.9408 43.1104 96.0512 96.0512 96.0512L384 921.7024c52.9408 0 96.0512-43.008 96.0512-96.0512L480.0512 633.6512C480.0512 580.608 436.9408 537.6 384 537.6zM441.6512 825.5488c0 31.744-25.8048 57.5488-57.6512 57.5488L192 883.0976c-31.744 0-57.6512-25.8048-57.6512-57.5488L134.3488 633.6512c0-31.744 25.8048-57.6512 57.6512-57.6512L384 576c31.744 0 57.6512 25.8048 57.6512 57.6512L441.6512 825.5488z" p-id="9360" fill="#707070"></path><path d="M288.0512 691.2c-21.0944 0-38.4 17.3056-38.4 38.4 0 21.0944 17.3056 38.4 38.4 38.4 21.0944 0 38.4-17.3056 38.4-38.4C326.4512 708.5056 309.1456 691.2 288.0512 691.2z" p-id="9361" fill="#707070"></path><path d="M893.44 550.4c-11.9808 0-21.7088 8.704-21.7088 19.5584l0 37.376 0 86.528-116.736 0-0.2048-86.528 0-11.1616c0-21.504-19.5584-39.1168-43.4176-39.1168L600.2688 557.056c-23.8592 0-43.4176 17.6128-43.4176 39.1168l0 116.224 0 176.9472c0 10.752 9.728 19.5584 21.7088 19.5584 11.9808 0 21.7088-8.704 21.7088-19.5584L600.2688 751.4112 600.2688 596.1728l111.3088 0 0 50.2784 0 47.4112c0 21.504 19.5584 39.1168 43.4176 39.1168l116.736 0c23.8592 0 43.4176-17.6128 43.4176-39.1168l0-47.4112 0-76.3904C915.1488 559.104 905.4208 550.4 893.44 550.4z" p-id="9362" fill="#707070"></path><path d="M863.9488 857.6m-38.4 0a37.5 37.5 0 1 0 76.8 0 37.5 37.5 0 1 0-76.8 0Z" p-id="9363" fill="#707070"></path><path d="M710.3488 857.6m-38.4 0a37.5 37.5 0 1 0 76.8 0 37.5 37.5 0 1 0-76.8 0Z" p-id="9364" fill="#707070"></path></svg>